<?xml version="1.0" encoding="utf-8"?>
<!-- Generator: Adobe Illustrator 19.0.0, SVG Export Plug-In . SVG Version: 6.00 Build 0)  -->
<svg version="1.1" id="Capa_1" xmlns="http://www.w3.org/2000/svg" xmlns:xlink="http://www.w3.org/1999/xlink" x="0px" y="0px"
	 viewBox="-280 372 44 44" style="enable-background:new -280 372 44 44;" xml:space="preserve">
<style type="text/css">
	.st0{filter:url(#filter-1);}
	.st1{fill:#FFFFFF;}
	.st2{fill:#0AD4FA;}
</style>
<filter  id="filter-1" filterUnits="objectBoundingBox" height="128.3%" width="128.3%" y="-9.1%" x="-9.1%">
	<feOffset  result="shadowOffsetOuter1" in="SourceAlpha" dy="2" dx="2"></feOffset>
	<feGaussianBlur  stdDeviation="2" result="shadowBlurOuter1" in="shadowOffsetOuter1"></feGaussianBlur>
	
		<feColorMatrix  type="matrix" values="0 0 0 0 0   0 0 0 0 0   0 0 0 0 0  0 0 0 0.1 0" result="shadowMatrixOuter1" in="shadowBlurOuter1">
		</feColorMatrix>
	<feMerge>
		<feMergeNode  in="shadowMatrixOuter1"></feMergeNode>
		<feMergeNode  in="SourceGraphic"></feMergeNode>
	</feMerge>
</filter>
<title>icon-white</title>
<desc>Created with Sketch.</desc>
<g id="Page-1">
	<g id="Catalog" transform="translate(-652.000000, -634.000000)">
		<g id="products" transform="translate(132.000000, 624.000000)">
			<g id="line-1">
				<g id="product-card-hover" transform="translate(300.000000, 0.000000)" class="st0">
					<g id="icon-white_1_" transform="translate(222.000000, 12.000000)">
						<g>
							<circle id="Oval-Copy-6_1_" class="st1" cx="-259" cy="393" r="21"/>
							<path id="Shape-Copy-2_1_" class="st2" d="M-250,401.1l-1.1-13.6c0-0.3-0.3-0.5-0.6-0.5h-3v-1.1c0-1.6-1.4-2.9-3-2.9h-2.4
								c-1.7,0-3,1.3-3,2.9v1.1h-3c-0.3,0-0.6,0.2-0.6,0.5l-1.1,13.6c0,0.5,0.1,1,0.5,1.3c0.3,0.4,0.8,0.6,1.3,0.6h14.4
								c0.5,0,1-0.2,1.3-0.6C-250.1,402.1-250,401.6-250,401.1z M-262,386.3c0-1.2,0.8-2.3,1.8-2.3h2.4c1,0,1.8,1,1.8,2.3v0.8h-6
								V386.3z"/>
						</g>
					</g>
				</g>
			</g>
		</g>
	</g>
</g>
</svg>
